<?xml version="1.0" encoding="UTF-8" standalone="no"?>
<!DOCTYPE svg PUBLIC "-//W3C//DTD SVG 1.1//EN" "http://www.w3.org/Graphics/SVG/1.1/DTD/svg11.dtd">
<svg width="100%" height="100%" viewBox="0 0 2846 2630" version="1.1" xmlns="http://www.w3.org/2000/svg" xmlns:xlink="http://www.w3.org/1999/xlink" xml:space="preserve" xmlns:serif="http://www.serif.com/" style="fill-rule:evenodd;clip-rule:evenodd;stroke-linejoin:round;stroke-miterlimit:2;">
    <g transform="matrix(4.16667,0,0,4.16667,0,0)">
        <path d="M0,175.289L90.308,150.117C115.984,142.96 134.577,143.456 146.087,151.62C155.826,158.744 160.253,171.486 160.253,190.109L160.253,475.649L93.85,492.274L93.85,187.715L66.403,195.277L66.403,499.145L0,515.771L0,175.289Z" style="fill:#888888;fill-rule:nonzero;"/>
        <g transform="matrix(0.318664,0,0,0.318664,0,-9.20611)">
            <path d="M0,175.289L90.308,150.117C115.984,142.96 134.577,143.456 146.087,151.62C155.826,158.744 160.253,171.486 160.253,190.109L160.253,475.649L93.85,492.274L93.85,187.715L66.403,195.277L66.403,499.145L0,515.771L0,175.289Z" style="fill:#888888;fill-rule:nonzero;"/>
        </g>
        <path d="M186.804,123.221L313.413,87.931L313.413,127.216L253.207,143.805L253.207,254.307L311.642,238.733L311.642,278.012L253.207,293.399L253.207,413.284L313.413,398.019L313.413,437.303L186.804,469.002L186.804,123.221Z" style="fill:#888888;fill-rule:nonzero;"/>
        <g transform="matrix(0.318664,0,0,0.318664,0,-9.20611)">
            <path d="M186.804,123.221L313.413,87.931L313.413,127.216L253.207,143.805L253.207,254.307L311.642,238.733L311.642,278.012L253.207,293.399L253.207,413.284L313.413,398.019L313.413,437.303L186.804,469.002L186.804,123.221Z" style="fill:#888888;fill-rule:nonzero;"/>
        </g>
        <path d="M335.536,81.765L425.845,56.593C451.521,49.436 470.113,50.089 481.624,58.567C491.362,65.962 495.79,79.09 495.79,98.226L495.79,391.642L429.387,408.267L429.387,95.261L401.939,102.823L401.939,415.139L335.536,431.764L335.536,81.765Z" style="fill:#888888;fill-rule:nonzero;"/>
        <path d="M600.253,202.01L600.253,161.811L682.594,139.865L682.594,286.608C682.594,305.49 675.511,322.383 662.23,335.967C648.064,349.752 628.585,360.007 602.909,366.432C577.233,372.857 556.87,372.611 543.589,365.802C529.423,359.238 522.34,346.109 522.34,327.466L522.34,87.759C522.34,68.583 529.423,51.707 543.589,37.648C556.87,23.811 577.233,12.791 602.909,5.632C628.585,-1.528 648.064,-1.58 662.23,4.71C675.511,11.267 682.594,24.413 682.594,43.834L682.594,119.363L616.19,137.169L616.19,43.789L588.743,51.352L588.743,328.208L616.19,321.248L616.19,197.813L600.253,202.01Z" style="fill:#888888;fill-rule:nonzero;"/>
        <g transform="matrix(0.318936,0,0,0.318936,-58.6209,7.97747)">
            <path d="M616.19,321.248L616.19,157.563L682.594,139.865L682.594,286.608C682.594,305.49 675.511,322.383 662.23,335.967C648.064,349.752 628.585,360.007 602.909,366.432C577.233,372.857 556.87,372.611 543.589,365.802C529.423,359.238 522.34,346.109 522.34,327.466L522.34,87.759C522.34,68.583 529.423,51.707 543.589,37.648C556.87,23.811 577.233,12.791 602.909,5.632C628.585,-1.528 648.064,-1.58 662.23,4.71C675.511,11.267 682.594,24.413 682.594,43.834L682.594,156.262L616.19,210.575L616.19,43.789L588.743,51.352L588.743,328.208L616.19,321.248Z" style="fill:#888888;fill-rule:nonzero;"/>
        </g>
        <path d="M236.131,564.924L236.131,585.801L256.739,581.572L256.739,557.087C256.739,554.901 255.933,553.324 254.315,552.575C252.699,551.827 249.87,551.12 245.425,550.76L231.281,549.873C221.179,549.224 215.925,546.029 215.925,539.755L215.925,522.232C215.925,511.197 226.027,503.28 245.829,498.788C266.439,494.113 276.542,497.533 276.542,508.739L276.542,522.581L256.739,526.919L256.739,507.244L236.131,511.861L236.131,533.174C236.131,535.349 236.938,536.695 238.151,537.301C239.363,538.126 242.192,538.601 247.042,539.075L262.802,540.48C272.097,541.331 276.542,544.552 276.542,550.045L276.542,571.796C276.542,583.001 266.439,590.54 245.829,594.712C226.027,598.72 215.925,595.356 215.925,584.323L215.925,569.178L236.131,564.924Z" style="fill:#888888;fill-rule:nonzero;"/>
        <path d="M354.129,606.839C354.129,618.04 344.025,625.558 323.416,629.47C302.806,633.383 292.703,629.786 292.703,618.755L292.703,596.694L312.909,592.662L312.909,620.378L333.923,616.331L333.923,576.21L318.971,579.239C309.272,581.204 302.402,581.49 298.765,580.018C294.724,578.854 292.703,575.516 292.703,570.001L292.703,488.817L312.505,484.328L312.505,570.129L333.923,565.734L333.923,479.474L354.129,474.893L354.129,606.839Z" style="fill:#888888;fill-rule:nonzero;"/>
        <path d="M390.495,532.425L390.495,554.125L411.105,549.896L411.105,524.452C411.105,522.18 410.297,520.535 408.68,519.743C407.063,518.952 404.234,518.193 399.789,517.782L385.646,516.74C375.543,515.982 370.289,512.615 370.289,506.092L370.289,487.874C370.289,476.403 380.392,468.264 400.193,463.772C420.804,459.097 430.906,462.74 430.906,474.382L430.906,488.763L411.105,493.101L411.105,472.656L390.495,477.273L390.495,499.425C390.495,501.685 391.303,503.092 392.516,503.732C393.728,504.6 396.557,505.117 401.406,505.652L417.166,507.245C426.461,508.208 430.906,511.591 430.906,517.298L430.906,539.897C430.906,551.539 420.804,559.291 400.193,563.463C380.392,567.472 370.289,563.894 370.289,552.424L370.289,536.679L390.495,532.425Z" style="fill:#888888;fill-rule:nonzero;"/>
        <path d="M441.003,465.956L441.003,455.201L452.318,452.636L452.318,417.299L472.524,412.546L472.524,448.056L487.477,444.667L487.477,455.543L472.524,458.893L472.524,537.292L489.497,533.809L489.497,544.69L478.586,546.901C468.887,548.866 462.018,549.108 458.38,547.548C454.339,546.304 452.318,542.815 452.318,537.079L452.318,463.421L441.003,465.956Z" style="fill:#888888;fill-rule:nonzero;"/>
        <path d="M542.028,443.32L521.013,448.028L521.013,479.52L542.028,474.969L542.028,443.32ZM562.233,512.758C562.233,524.772 551.727,532.788 530.713,537.042C510.911,541.05 500.809,537.291 500.809,525.452L500.809,458.824C500.809,446.984 510.911,438.656 531.117,434.073C551.727,429.398 562.233,433.139 562.233,445.153L562.233,481.664L521.013,490.484L521.013,527.342L542.028,523.029L542.028,497.709L562.233,493.442L562.233,512.758Z" style="fill:#888888;fill-rule:nonzero;"/>
        <path d="M577.586,424.241L653.964,406.928C663.258,404.822 670.128,404.472 673.765,405.824C677.402,407.422 679.423,411.324 679.423,417.376L679.423,506.212L660.025,510.141L660.025,416.88L639.012,421.589L639.012,514.399L618.806,518.493L618.806,426.116L597.792,430.825L597.792,522.75L577.586,526.844L577.586,424.241Z" style="fill:#888888;fill-rule:nonzero;"/>
    </g>
</svg>
